<svg width="361" height="501" viewBox="0 0 361 501" fill="none" xmlns="http://www.w3.org/2000/svg">
<path d="M250.663 500.849C183.884 500.849 121.106 474.841 73.8851 427.621C26.672 380.408 0.663086 317.623 0.663086 250.845C0.663086 184.075 26.672 121.29 73.8851 74.0775C121.106 26.8577 183.884 0.849121 250.663 0.849121C317.442 0.849121 380.221 26.8577 427.441 74.0775C474.662 121.29 500.663 184.075 500.663 250.845C500.663 317.623 474.662 380.408 427.441 427.621C380.221 474.841 317.442 500.849 250.663 500.849ZM250.663 3.22561C114.124 3.22561 3.03223 114.308 3.03223 250.845C3.03223 387.39 114.124 498.48 250.663 498.48C387.21 498.48 498.294 387.39 498.294 250.845C498.294 114.308 387.21 3.22561 250.663 3.22561Z" fill="#FED230"/>
<path d="M250.663 444.685C143.778 444.685 56.8213 357.729 56.8213 250.846C56.8213 143.963 143.778 57.0146 250.663 57.0146C357.548 57.0146 444.505 143.963 444.505 250.846C444.505 357.729 357.548 444.685 250.663 444.685ZM250.663 58.8524C144.797 58.8524 58.659 144.982 58.659 250.846C58.659 356.718 144.797 442.855 250.663 442.855C356.536 442.855 442.667 356.718 442.667 250.846C442.667 144.982 356.536 58.8524 250.663 58.8524Z" fill="#FED230"/>
</svg>
