<svg width="459" height="700" viewBox="0 0 459 700" fill="none" xmlns="http://www.w3.org/2000/svg">
<path d="M108.5 700C15.0124 700 -72.8825 663.592 -138.987 597.487C-205.092 531.374 -241.5 443.488 -241.5 349.991C-241.5 256.504 -205.092 168.617 -138.987 102.504C-72.8825 36.3994 15.0124 -0.00854492 108.5 -0.00854492C201.988 -0.00854492 289.883 36.3994 355.987 102.504C422.092 168.617 458.5 256.504 458.5 349.991C458.5 443.488 422.092 531.374 355.987 597.487C289.883 663.592 201.988 700 108.5 700ZM108.5 3.31292C-82.659 3.31292 -238.187 158.832 -238.187 349.991C-238.187 541.159 -82.659 696.687 108.5 696.687C299.668 696.687 455.187 541.159 455.187 349.991C455.187 158.832 299.668 3.31292 108.5 3.31292Z" fill="#B898E3"/>
<path d="M108.5 639.222C31.2441 639.222 -41.384 609.133 -96.0131 554.504C-150.634 499.883 -180.723 427.247 -180.723 349.991C-180.723 272.743 -150.634 200.106 -96.0131 145.486C-41.384 90.8568 31.2441 60.7673 108.5 60.7673C185.756 60.7673 258.384 90.8568 313.013 145.486C367.642 200.106 397.723 272.743 397.723 349.991C397.723 427.247 367.642 499.883 313.013 554.504C258.384 609.133 185.756 639.222 108.5 639.222ZM108.5 63.5167C-49.4614 63.5167 -177.982 192.029 -177.982 349.991C-177.982 507.961 -49.4614 636.481 108.5 636.481C266.47 636.481 394.983 507.961 394.983 349.991C394.983 192.029 266.47 63.5167 108.5 63.5167Z" fill="#B898E3"/>
</svg>
