<svg width="428" height="600" viewBox="0 0 428 600" fill="none" xmlns="http://www.w3.org/2000/svg">
<path d="M300.852 600.007C220.719 600.007 145.381 568.8 88.7196 512.139C32.0584 455.471 0.851562 380.14 0.851562 300C0.851562 219.868 32.0584 144.537 88.7196 87.8681C145.381 31.2068 220.719 0 300.852 0C380.984 0 456.322 31.2068 512.984 87.8681C569.645 144.537 600.852 219.868 600.852 300C600.852 380.14 569.645 455.471 512.984 512.139C456.322 568.8 380.984 600.007 300.852 600.007ZM300.852 2.84697C137.001 2.84697 3.69121 136.149 3.69121 300C3.69121 463.858 137.001 597.168 300.852 597.168C464.709 597.168 598.012 463.858 598.012 300C598.012 136.149 464.709 2.84697 300.852 2.84697Z" fill="#F6E870"/>
<path d="M300.852 492.219C194.862 492.219 108.634 405.99 108.634 300.001C108.634 194.012 194.862 107.79 300.852 107.79C406.841 107.79 493.069 194.012 493.069 300.001C493.069 405.99 406.841 492.219 300.852 492.219ZM300.852 109.613C195.872 109.613 110.456 195.022 110.456 300.001C110.456 404.987 195.872 490.403 300.852 490.403C405.838 490.403 491.247 404.987 491.247 300.001C491.247 195.022 405.838 109.613 300.852 109.613Z" fill="#F6E870"/>
</svg>
