<svg width="279" height="520" viewBox="0 0 279 520" fill="none" xmlns="http://www.w3.org/2000/svg">
<path d="M18.5 519.997C-50.9479 519.997 -116.241 492.952 -165.348 443.845C-214.454 394.732 -241.5 329.445 -241.5 259.991C-241.5 190.543 -214.454 125.256 -165.348 76.1435C-116.241 27.0371 -50.9479 -0.00878906 18.5 -0.00878906C87.9479 -0.00878906 153.241 27.0371 202.348 76.1435C251.454 125.256 278.5 190.543 278.5 259.991C278.5 329.445 251.454 394.732 202.348 443.845C153.241 492.952 87.9479 519.997 18.5 519.997ZM18.5 2.45858C-123.504 2.45858 -239.039 117.987 -239.039 259.991C-239.039 402.001 -123.504 517.536 18.5 517.536C160.51 517.536 276.039 402.001 276.039 259.991C276.039 117.987 160.51 2.45858 18.5 2.45858Z" fill="#45AAF2"/>
<path d="M18.5 474.848C-38.8902 474.848 -92.8425 452.496 -133.424 411.914C-173.999 371.339 -196.352 317.381 -196.352 259.99C-196.352 202.607 -173.999 148.648 -133.424 108.073C-92.8425 67.4911 -38.8902 45.1389 18.5 45.1389C75.8902 45.1389 129.842 67.4911 170.424 108.073C211.006 148.648 233.352 202.607 233.352 259.99C233.352 317.381 211.006 371.339 170.424 411.914C129.842 452.496 75.8902 474.848 18.5 474.848ZM18.5 47.1813C-98.8428 47.1813 -194.316 142.648 -194.316 259.99C-194.316 377.34 -98.8428 472.812 18.5 472.812C135.849 472.812 231.316 377.34 231.316 259.99C231.316 142.648 135.849 47.1813 18.5 47.1813Z" fill="#45AAF2"/>
</svg>
