<svg width="262" height="421" viewBox="0 0 262 421" fill="none" xmlns="http://www.w3.org/2000/svg">
<path d="M210.986 420.506C154.892 420.506 102.158 398.659 62.4928 358.993C22.8338 319.334 0.986328 266.594 0.986328 210.5C0.986328 154.412 22.8338 101.672 62.4928 62.0127C102.158 22.3475 154.892 0.5 210.986 0.5C267.081 0.5 319.815 22.3475 359.48 62.0127C399.145 101.672 420.986 154.412 420.986 210.5C420.986 266.594 399.145 319.334 359.48 358.993C319.815 398.659 267.081 420.506 210.986 420.506ZM210.986 2.49628C96.2932 2.49628 2.97641 95.8069 2.97641 210.5C2.97641 325.199 96.2932 418.516 210.986 418.516C325.686 418.516 418.996 325.199 418.996 210.5C418.996 95.8069 325.686 2.49628 210.986 2.49628Z" fill="#F4B86A"/>
<path d="M210.986 373.328C121.203 373.328 48.1592 300.284 48.1592 210.501C48.1592 120.718 121.203 47.6804 210.986 47.6804C300.769 47.6804 373.813 120.718 373.813 210.501C373.813 300.284 300.769 373.328 210.986 373.328ZM210.986 49.2241C122.059 49.2241 49.7029 121.574 49.7029 210.501C49.7029 299.435 122.059 371.791 210.986 371.791C299.92 371.791 372.27 299.435 372.27 210.501C372.27 121.574 299.92 49.2241 210.986 49.2241Z" fill="#F4B86A"/>
</svg>
