<svg width="151" height="39" viewBox="0 0 151 39" fill="none" xmlns="http://www.w3.org/2000/svg">
<path d="M33.3081 31.9517V12.6356H38.689C41.9728 12.6356 44.5115 14.512 44.5115 17.7681C44.5115 19.5066 43.7112 20.7483 42.4695 21.5486C44.3183 22.3764 45.6152 24.0045 45.6152 26.4052C45.6152 30.0477 42.7178 31.9517 39.2409 31.9517H33.3081ZM36.2607 28.9991H39.2409C41.0897 28.9991 42.635 27.9505 42.635 26.1569C42.635 24.2804 41.2829 23.3146 39.2409 23.3146H36.2607V28.9991ZM36.2607 20.4448H38.689C40.3447 20.4448 41.5864 19.617 41.5864 18.0165C41.5864 16.416 40.3447 15.5882 38.689 15.5882H36.2607V20.4448Z" fill="white"/>
<path d="M48.2307 31.9517V17.9613H50.9349V20.224C51.9559 18.5408 53.5564 17.6578 55.6812 17.6578V20.362C52.6734 20.362 50.9349 21.8245 50.9349 26.2396V31.9517H48.2307Z" fill="white"/>
<path d="M75.342 31.9517V24.9565V17.9613H78.0187V31.9517H75.342ZM75.1213 13.8773C75.1213 13.0219 75.8387 12.332 76.6666 12.332C77.522 12.332 78.2394 13.0219 78.2394 13.8773C78.2394 14.7327 77.522 15.4226 76.6666 15.4226C75.8387 15.4226 75.1213 14.7327 75.1213 13.8773Z" fill="white"/>
<path d="M81.1338 31.9517V17.9613H83.8381V19.8653C84.8591 18.5132 86.3492 17.6302 88.336 17.6302C92.1164 17.6302 94.5172 20.6656 94.5172 24.446V31.9517H91.8129V24.446C91.8129 21.9625 90.1848 20.3344 88.0877 20.3344C85.411 20.3344 83.8381 22.5696 83.8381 25.2462V31.9517H81.1338Z" fill="white"/>
<path d="M101.125 31.9517L95.7438 17.9613H98.6412L102.587 28.1988L105.788 17.9613H108.41L111.583 28.1988L115.529 17.9613H118.426L113.046 31.9517H110.148L107.085 22.1832L104.022 31.9517H101.125Z" fill="white"/>
<path d="M126.319 32.2552C122.263 32.2552 119.117 28.9991 119.117 24.9427C119.117 20.8863 122.263 17.6302 126.319 17.6302C128.444 17.6302 130.183 18.5408 131.424 19.8377V17.9613H134.129V31.9517H131.424V30.0477C130.183 31.3722 128.444 32.2552 126.319 32.2552ZM121.849 24.9427C121.849 27.509 124.001 29.551 126.568 29.551C129.134 29.551 131.314 27.509 131.314 24.9427C131.314 22.3764 129.134 20.3344 126.568 20.3344C124.001 20.3344 121.849 22.3764 121.849 24.9427Z" fill="white"/>
<path d="M138.558 38.5192L141.373 31.9517L135.357 17.9613H138.31L142.835 28.5024L147.361 17.9613H150.286L141.511 38.5192H138.558Z" fill="white"/>
<path d="M78.3676 13.8428C78.3676 14.7953 77.5954 15.5675 76.6429 15.5675C75.6904 15.5675 74.9183 14.7953 74.9183 13.8428C74.9183 12.8903 75.6904 12.1182 76.6429 12.1182C77.5954 12.1182 78.3676 12.8903 78.3676 13.8428Z" fill="white"/>
<path d="M64.0116 32.3104C59.9552 32.3104 56.8094 29.0543 56.8094 24.9979C56.8094 20.9415 59.9552 17.6853 64.0116 17.6853C66.1363 17.6853 67.8748 18.596 69.1165 19.8929V18.0165H71.8208V32.0069H69.1165V30.1029C67.8748 31.4274 66.1363 32.3104 64.0116 32.3104ZM59.5413 24.9979C59.5413 27.5642 61.6936 29.6062 64.2599 29.6062C66.8262 29.6062 69.0062 27.5642 69.0062 24.9979C69.0062 22.4316 66.8262 20.3896 64.2599 20.3896C61.6936 20.3896 59.5413 22.4316 59.5413 24.9979Z" fill="white"/>
<path fill-rule="evenodd" clip-rule="evenodd" d="M0.285645 17.4466V34.2179H3.26721H6.24878V33.4694V32.7208L7.2271 33.2198C8.61428 33.9276 10.1147 34.2037 12.6116 34.2114C15.8235 34.2211 17.1816 33.7576 19.9135 31.7197C21.714 30.3765 23.0594 28.3219 23.9352 25.5775C24.2893 24.4676 24.3312 24.0101 24.2513 22.1301C24.1527 19.8117 23.9921 19.189 22.97 17.1598C21.4525 14.1475 19.038 12.1152 15.7505 11.0832C13.6803 10.4334 10.8218 10.4735 8.76447 11.181C7.94454 11.4632 7.0879 11.8142 6.86093 11.9615C6.63396 12.1085 6.40345 12.2289 6.34847 12.2289C6.29369 12.2289 6.24878 9.62931 6.24878 6.45208V0.675293H3.26721H0.285645V17.4466ZM14.5586 17.0965C16.6584 17.8819 17.9598 19.7023 18.1309 22.0926C18.3109 24.6081 17.1015 26.7267 14.8595 27.8236C13.3479 28.5634 11.4486 28.5634 9.93697 27.8236C8.59844 27.1689 7.31152 25.7641 6.89149 24.4993C6.41332 23.0598 6.58197 20.9867 7.2817 19.7009C8.65378 17.1801 11.7859 16.0591 14.5586 17.0965Z" fill="white"/>
</svg>
