<svg width="200" height="51" viewBox="0 0 200 51" fill="none" xmlns="http://www.w3.org/2000/svg">
<path d="M44.0254 41.553V15.7845H51.2002C55.5786 15.7845 58.9637 18.2877 58.9637 22.6315C58.9637 24.9507 57.8966 26.6073 56.2409 27.6748C58.7061 28.7792 60.4354 30.9511 60.4354 34.1538C60.4354 39.013 56.5721 41.553 51.9361 41.553H44.0254ZM47.9623 37.6141H51.9361C54.4012 37.6141 56.4617 36.2153 56.4617 33.8225C56.4617 31.3192 54.6588 30.0308 51.9361 30.0308H47.9623V37.6141ZM47.9623 26.2023H51.2002C53.4078 26.2023 55.0635 25.098 55.0635 22.9629C55.0635 20.8277 53.4078 19.7234 51.2002 19.7234H47.9623V26.2023Z" fill="black"/>
<path d="M63.9228 41.553V22.8892H67.5286V25.9078C68.8899 23.6623 71.024 22.4843 73.8571 22.4843V26.0919C69.8466 26.0919 67.5286 28.0429 67.5286 33.9329V41.553H63.9228Z" fill="black"/>
<path d="M100.072 41.553V32.2211V22.8892H103.641V41.553H100.072ZM99.778 17.441C99.778 16.2998 100.735 15.3795 101.838 15.3795C102.979 15.3795 103.936 16.2998 103.936 17.441C103.936 18.5822 102.979 19.5025 101.838 19.5025C100.735 19.5025 99.778 18.5822 99.778 17.441Z" fill="black"/>
<path d="M107.795 41.553V22.8892H111.401V25.4293C112.762 23.6255 114.749 22.4475 117.398 22.4475C122.439 22.4475 125.64 26.4968 125.64 31.5401V41.553H122.034V31.5401C122.034 28.227 119.863 26.0551 117.067 26.0551C113.498 26.0551 111.401 29.0369 111.401 32.6077V41.553H107.795Z" fill="black"/>
<path d="M134.45 41.553L127.276 22.8892H131.139L136.4 36.5466L140.669 22.8892H144.164L148.395 36.5466L153.657 22.8892H157.52L150.345 41.553H146.482L142.398 28.5215L138.314 41.553H134.45Z" fill="black"/>
<path d="M168.044 41.958C162.636 41.958 158.441 37.6141 158.441 32.2027C158.441 26.7913 162.636 22.4475 168.044 22.4475C170.877 22.4475 173.195 23.6623 174.851 25.3925V22.8892H178.457V41.553H174.851V39.013C173.195 40.78 170.877 41.958 168.044 41.958ZM162.084 32.2027C162.084 35.6263 164.954 38.3504 168.375 38.3504C171.797 38.3504 174.704 35.6263 174.704 32.2027C174.704 28.7792 171.797 26.0551 168.375 26.0551C164.954 26.0551 162.084 28.7792 162.084 32.2027Z" fill="black"/>
<path d="M184.363 50.3144L188.116 41.553L180.095 22.8892H184.032L190.066 36.9515L196.1 22.8892H200L188.3 50.3144H184.363Z" fill="black"/>
<path d="M104.107 17.395C104.107 18.6657 103.077 19.6958 101.807 19.6958C100.537 19.6958 99.5073 18.6657 99.5073 17.395C99.5073 16.1243 100.537 15.0942 101.807 15.0942C103.077 15.0942 104.107 16.1243 104.107 17.395Z" fill="#2196F3"/>
<path d="M84.9646 42.0316C79.5559 42.0316 75.3614 37.6878 75.3614 32.2764C75.3614 26.865 79.5559 22.5211 84.9646 22.5211C87.7977 22.5211 90.1157 23.7359 91.7715 25.4661V22.9629H95.3772V41.6267H91.7715V39.0866C90.1157 40.8536 87.7977 42.0316 84.9646 42.0316ZM79.004 32.2764C79.004 35.6999 81.8739 38.424 85.2957 38.424C88.7176 38.424 91.6243 35.6999 91.6243 32.2764C91.6243 28.8528 88.7176 26.1287 85.2957 26.1287C81.8739 26.1287 79.004 28.8528 79.004 32.2764Z" fill="black"/>
<mask id="mask0_1_561" style="mask-type:luminance" maskUnits="userSpaceOnUse" x="7" y="12" width="25" height="33">
<path d="M7.39014 12.9377H31.4464V44.3089H7.39014V12.9377Z" fill="white"/>
</mask>
<g mask="url(#mask0_1_561)">
<path d="M15.9412 36.5709C11.6074 36.5709 8.08077 33.0395 8.08077 28.6987C8.08077 24.3602 11.6074 20.8288 15.9412 20.8288C20.2786 20.8288 23.8052 24.3602 23.8052 28.6987C23.8052 33.0395 20.2786 36.5709 15.9412 36.5709ZM15.9412 13.1533C12.9095 13.1533 10.0803 14.0312 7.68604 15.5417V41.858C10.0803 43.3685 12.9095 44.2464 15.9412 44.2464C24.5063 44.2464 31.4713 37.272 31.4713 28.6987C31.4713 20.1277 24.5063 13.1533 15.9412 13.1533Z" fill="#FED230"/>
</g>
<mask id="mask1_1_561" style="mask-type:luminance" maskUnits="userSpaceOnUse" x="0" y="0" width="8" height="45">
<path d="M0 0H7.69196V44.0073H0V0Z" fill="white"/>
</mask>
<g mask="url(#mask1_1_561)">
<path d="M0.412596 28.6988C0.412596 23.1631 3.32065 18.2955 7.68626 15.5418V0.095459H0.019043V43.84H7.68626V41.858C3.32065 39.1044 0.412596 34.2368 0.412596 28.6988Z" fill="#2D99DA"/>
</g>
<path d="M0.412598 28.6987C0.412598 34.2367 3.32065 39.1043 7.68626 41.858V15.5417C3.32065 18.2954 0.412598 23.163 0.412598 28.6987Z" fill="#FF3598"/>
</svg>
