<svg width="51" height="51" viewBox="0 0 51 51" fill="none" xmlns="http://www.w3.org/2000/svg">
<path d="M25.7713 0.66748H25.6574C11.8817 0.66748 0.714355 11.8349 0.714355 25.6105V25.7244C0.714355 39.5001 11.8817 50.6675 25.6574 50.6675H25.7713C39.547 50.6675 50.7144 39.5001 50.7144 25.7244V25.6105C50.7144 11.8349 39.547 0.66748 25.7713 0.66748Z" fill="#F50179"/>
<path d="M37.8007 18.7559V23.4768C36.9756 23.3963 35.9035 23.2088 34.7176 22.7744C33.1691 22.2068 32.0164 21.4308 31.2614 20.83V30.3717L31.2422 30.3419C31.2544 30.5311 31.2614 30.7238 31.2614 30.9182C31.2614 35.6567 27.4058 39.514 22.6656 39.514C17.9254 39.514 14.0698 35.6567 14.0698 30.9182C14.0698 26.1798 17.9254 22.3207 22.6656 22.3207C23.1298 22.3207 23.5853 22.3575 24.0302 22.4293V27.0819C23.6028 26.9295 23.1439 26.8472 22.6656 26.8472C20.4216 26.8472 18.5946 28.6725 18.5946 30.9182C18.5946 33.164 20.4216 34.9893 22.6656 34.9893C24.9096 34.9893 26.7367 33.1622 26.7367 30.9182C26.7367 30.8342 26.7349 30.7501 26.7297 30.666V12.1238H31.4471C31.4646 12.5232 31.4804 12.9261 31.4979 13.3255C31.5295 14.112 31.8097 14.867 32.2985 15.4854C32.8713 16.2124 33.7174 17.0567 34.9051 17.7311C36.0174 18.36 37.0615 18.6315 37.8007 18.7594V18.7559Z" fill="white"/>
</svg>
