<svg width="35" height="35" viewBox="0 0 35 35" fill="none" xmlns="http://www.w3.org/2000/svg">
<g id="edit_FILL0_wght400_GRAD0_opsz48 1">
<path id="Vector" d="M6.5625 28.4377H8.16667L25.375 11.2658L23.7708 9.66162L6.5625 26.8335V28.4377ZM5.46875 30.6252C5.15278 30.6252 4.89149 30.5219 4.6849 30.3153C4.4783 30.1087 4.375 29.8474 4.375 29.5314V26.87C4.375 26.5783 4.43576 26.2927 4.55729 26.0132C4.67882 25.7337 4.83681 25.4967 5.03125 25.3022L25.3385 5.03141C25.533 4.83697 25.7639 4.68506 26.0312 4.57568C26.2986 4.46631 26.5781 4.41162 26.8698 4.41162C27.1372 4.41162 27.4045 4.46631 27.6719 4.57568C27.9392 4.68506 28.1823 4.83697 28.401 5.03141L30.0052 6.63558C30.224 6.85433 30.3819 7.09738 30.4792 7.36475C30.5764 7.63211 30.625 7.89947 30.625 8.16683C30.625 8.43419 30.5703 8.70763 30.4609 8.98714C30.3516 9.26666 30.1997 9.50363 30.0052 9.69808L9.69792 29.9689C9.50347 30.1634 9.26649 30.3213 8.98698 30.4429C8.70747 30.5644 8.42188 30.6252 8.13021 30.6252H5.46875ZM24.5729 10.4637L23.7708 9.66162L25.375 11.2658L24.5729 10.4637Z" fill="white"/>
</g>
</svg>
