<svg width="200" height="51" viewBox="0 0 200 51" fill="none" xmlns="http://www.w3.org/2000/svg">
<g id="logo">
<g id="nome">
<path d="M44.0303 41.702V15.9472H51.2048C55.5832 15.9472 58.9681 18.4491 58.9681 22.7906C58.9681 25.1086 57.9011 26.7642 56.2454 27.8312C58.7105 28.935 60.4398 31.1057 60.4398 34.3067C60.4398 39.1633 56.5766 41.702 51.9407 41.702H44.0303ZM47.9671 37.7652H51.9407C54.4058 37.7652 56.4662 36.3671 56.4662 33.9756C56.4662 31.4737 54.6633 30.1859 51.9407 30.1859H47.9671V37.7652ZM47.9671 26.3595H51.2048C53.4124 26.3595 55.0681 25.2557 55.0681 23.1217C55.0681 20.9878 53.4124 19.884 51.2048 19.884H47.9671V26.3595Z" fill="black"/>
<path d="M63.927 41.702V23.0482H67.5327V26.0652C68.894 23.8208 71.028 22.6434 73.861 22.6434V26.2491C69.8507 26.2491 67.5327 28.1991 67.5327 34.086V41.702H63.927Z" fill="black"/>
<path d="M100.076 41.702V32.3751V23.0482H103.644V41.702H100.076ZM99.7812 17.6029C99.7812 16.4623 100.738 15.5425 101.842 15.5425C102.982 15.5425 103.939 16.4623 103.939 17.6029C103.939 18.7434 102.982 19.6632 101.842 19.6632C100.738 19.6632 99.7812 18.7434 99.7812 17.6029Z" fill="black"/>
<path d="M107.798 41.702V23.0482H111.404V25.5869C112.765 23.784 114.752 22.6067 117.401 22.6067C122.441 22.6067 125.642 26.6538 125.642 31.6944V41.702H122.037V31.6944C122.037 28.3831 119.866 26.2123 117.07 26.2123C113.501 26.2123 111.404 29.1925 111.404 32.7614V41.702H107.798Z" fill="black"/>
<path d="M134.452 41.702L127.278 23.0482H131.141L136.402 36.6982L140.67 23.0482H144.166L148.397 36.6982L153.658 23.0482H157.521L150.347 41.702H146.484L142.4 28.6774L138.316 41.702H134.452Z" fill="black"/>
<path d="M168.045 42.1067C162.637 42.1067 158.442 37.7652 158.442 32.3567C158.442 26.9482 162.637 22.6067 168.045 22.6067C170.878 22.6067 173.196 23.8208 174.852 25.5501V23.0482H178.458V41.702H174.852V39.1633C173.196 40.9294 170.878 42.1067 168.045 42.1067ZM162.085 32.3567C162.085 35.7784 164.955 38.5011 168.376 38.5011C171.798 38.5011 174.705 35.7784 174.705 32.3567C174.705 28.935 171.798 26.2123 168.376 26.2123C164.955 26.2123 162.085 28.935 162.085 32.3567Z" fill="black"/>
<path d="M184.363 50.4587L188.116 41.702L180.095 23.0482H184.032L190.066 37.1029L196.1 23.0482H200L188.3 50.4587H184.363Z" fill="black"/>
<path d="M104.11 17.5569C104.11 18.8269 103.08 19.8564 101.81 19.8564C100.54 19.8564 99.5105 18.8269 99.5105 17.5569C99.5105 16.2869 100.54 15.2573 101.81 15.2573C103.08 15.2573 104.11 16.2869 104.11 17.5569Z" fill="black"/>
<path d="M84.9682 42.1803C79.5597 42.1803 75.3653 37.8388 75.3653 32.4303C75.3653 27.0218 79.5597 22.6802 84.9682 22.6802C87.8012 22.6802 90.1192 23.8944 91.7749 25.6236V23.1218H95.3805V41.7756H91.7749V39.2369C90.1192 41.003 87.8012 42.1803 84.9682 42.1803ZM79.0078 32.4303C79.0078 35.852 81.8776 38.5747 85.2994 38.5747C88.7211 38.5747 91.6277 35.852 91.6277 32.4303C91.6277 29.0086 88.7211 26.2859 85.2994 26.2859C81.8776 26.2859 79.0078 29.0086 79.0078 32.4303Z" fill="black"/>
</g>
<path id="b vetor" fill-rule="evenodd" clip-rule="evenodd" d="M0 22.3617V44.7235H3.97542H7.95084V43.7254V42.7273L9.25528 43.3927C11.1048 44.3364 13.1055 44.7046 16.4346 44.7148C20.7172 44.7277 22.528 44.1098 26.1705 41.3926C28.5711 39.6017 30.365 36.8621 31.5328 33.203C32.0049 31.7231 32.0608 31.1131 31.9542 28.6064C31.8228 25.5153 31.6086 24.6849 30.2458 21.9794C28.2225 17.9629 25.0032 15.2532 20.6198 13.8772C17.8596 13.0108 14.0481 13.0642 11.3051 14.0076C10.2119 14.3838 9.06968 14.8519 8.76705 15.0482C8.46442 15.2443 8.15707 15.4048 8.08377 15.4048C8.01072 15.4048 7.95084 11.9387 7.95084 7.70238V0H3.97542H0V22.3617ZM19.0306 21.8949C21.8303 22.9422 23.5656 25.3694 23.7936 28.5564C24.0337 31.9105 22.4211 34.7352 19.4319 36.1977C17.4163 37.1841 14.884 37.1841 12.8684 36.1977C11.0837 35.3249 9.36783 33.4517 8.8078 31.7654C8.17024 29.846 8.3951 27.0818 9.32808 25.3674C11.1575 22.0064 15.3337 20.5117 19.0306 21.8949Z" fill="black"/>
</g>
</svg>
