<svg width="530" height="701" viewBox="0 0 530 701" fill="none" xmlns="http://www.w3.org/2000/svg">
<path d="M350.725 639.723C273.474 639.723 200.841 609.636 146.217 555.012C91.5871 500.382 61.5068 427.756 61.5068 350.499C61.5068 273.248 91.5871 200.615 146.217 145.992C200.841 91.3613 273.474 61.281 350.725 61.281C427.981 61.281 500.614 91.3613 555.238 145.992C609.862 200.615 639.949 273.248 639.949 350.499C639.949 427.756 609.862 500.389 555.238 555.012C500.614 609.636 427.981 639.723 350.725 639.723ZM350.725 64.0203C192.759 64.0203 64.2461 192.533 64.2461 350.499C64.2461 508.47 192.766 636.984 350.725 636.984C508.69 636.984 637.209 508.47 637.209 350.499C637.209 192.533 508.69 64.0203 350.725 64.0203Z" fill="#8FCCF7"/>
<path d="M350.725 574.751C227.075 574.751 126.479 474.155 126.479 350.499C126.479 226.849 227.075 126.247 350.725 126.247C474.381 126.247 574.977 226.849 574.977 350.499C574.977 474.155 474.381 574.751 350.725 574.751ZM350.725 128.377C228.247 128.377 128.603 228.021 128.603 350.499C128.603 472.983 228.247 572.627 350.725 572.627C473.209 572.627 572.853 472.983 572.853 350.499C572.853 228.021 473.209 128.377 350.725 128.377Z" fill="#8FCCF7"/>
<path d="M350.725 700.5C257.239 700.5 169.349 664.099 103.244 597.987C37.1318 531.882 0.724609 443.992 0.724609 350.5C0.724609 257.015 37.1318 169.118 103.244 103.013C169.349 36.9072 257.239 0.5 350.725 0.5C444.216 0.5 532.107 36.9072 598.212 103.013C664.317 169.118 700.725 257.015 700.725 350.5C700.725 443.992 664.317 531.882 598.212 597.987C532.107 664.099 444.216 700.5 350.725 700.5ZM350.725 3.81563C159.564 3.81563 4.04672 159.34 4.04672 350.5C4.04672 541.667 159.564 697.184 350.725 697.184C541.892 697.184 697.409 541.667 697.409 350.5C697.409 159.34 541.892 3.81563 350.725 3.81563Z" fill="#8FCCF7"/>
</svg>
