<svg width="332" height="551" viewBox="0 0 332 551" fill="none" xmlns="http://www.w3.org/2000/svg">
<path d="M56.0254 550.751C-17.4292 550.751 -86.4894 522.145 -138.429 470.206C-190.368 418.261 -218.975 349.208 -218.975 275.748C-218.975 202.294 -190.368 133.241 -138.429 81.2957C-86.4894 29.3569 -17.4292 0.750977 56.0254 0.750977C129.48 0.750977 198.54 29.3569 250.48 81.2957C302.419 133.241 331.025 202.294 331.025 275.748C331.025 349.208 302.419 418.261 250.48 470.206C198.54 522.145 129.48 550.751 56.0254 550.751ZM56.0254 3.36066C-94.171 3.36066 -216.372 125.553 -216.372 275.748C-216.372 425.949 -94.171 548.148 56.0254 548.148C206.228 548.148 328.422 425.949 328.422 275.748C328.422 125.553 206.228 3.36066 56.0254 3.36066Z" fill="#FF86C1"/>
<path d="M56.0256 502.998C-4.67549 502.998 -61.7405 479.356 -104.663 436.434C-147.579 393.518 -171.221 336.447 -171.221 275.747C-171.221 215.053 -147.579 157.982 -104.663 115.067C-61.7405 72.1444 -4.67549 48.5029 56.0256 48.5029C116.727 48.5029 173.792 72.1444 216.715 115.067C259.637 157.982 283.272 215.053 283.272 275.747C283.272 336.447 259.637 393.518 216.715 436.434C173.792 479.356 116.727 502.998 56.0256 502.998ZM56.0256 50.6631C-68.087 50.6631 -169.068 151.636 -169.068 275.747C-169.068 399.865 -68.087 500.844 56.0256 500.844C180.145 500.844 281.119 399.865 281.119 275.747C281.119 151.636 180.145 50.6631 56.0256 50.6631Z" fill="#FF86C1"/>
<path d="M56.0253 451.945C-41.1314 451.945 -120.174 372.903 -120.174 275.748C-120.174 178.592 -41.1314 99.5571 56.0253 99.5571C153.182 99.5571 232.225 178.592 232.225 275.748C232.225 372.903 153.182 451.945 56.0253 451.945ZM56.0253 101.228C-40.2055 101.228 -118.504 179.518 -118.504 275.748C-118.504 371.984 -40.2055 450.282 56.0253 450.282C152.263 450.282 230.555 371.984 230.555 275.748C230.555 179.518 152.263 101.228 56.0253 101.228Z" fill="#FF86C1"/>
</svg>
