<svg width="51" height="51" viewBox="0 0 51 51" fill="none" xmlns="http://www.w3.org/2000/svg">
<path d="M50.0443 25.6683C50.0443 38.2949 40.6851 48.7335 28.5267 50.4275C27.3898 50.5851 26.2267 50.6675 25.0461 50.6675C23.6833 50.6675 22.345 50.5589 21.0418 50.3487C9.13908 48.4323 0.0478516 38.111 0.0478516 25.6683C0.0478516 11.8611 11.2411 0.66748 25.0479 0.66748C38.8546 0.66748 50.0479 11.8611 50.0479 25.6683H50.0443Z" fill="#F50179"/>
<path d="M28.5268 20.7425V26.1887H35.2637L34.197 33.525H28.5268V50.4275C27.3899 50.5852 26.2268 50.6675 25.0462 50.6675C23.6834 50.6675 22.3451 50.5589 21.0418 50.3487V33.525H14.8286V26.1887H21.0418V19.525C21.0418 15.3909 24.3928 12.0381 28.5285 12.0381V12.0416C28.5408 12.0416 28.5513 12.0381 28.5636 12.0381H35.2655V18.3829H30.8863C29.5848 18.3829 28.5285 19.4392 28.5285 20.7408L28.5268 20.7425Z" fill="white"/>
</svg>
