<svg width="51" height="51" viewBox="0 0 51 51" fill="none" xmlns="http://www.w3.org/2000/svg">
<path d="M25.7713 0.66748H25.6574C11.8818 0.66748 0.714355 11.8349 0.714355 25.6105V25.7244C0.714355 39.5001 11.8818 50.6675 25.6574 50.6675H25.7713C39.547 50.6675 50.7144 39.5001 50.7144 25.7244V25.6105C50.7144 11.8349 39.547 0.66748 25.7713 0.66748Z" fill="#F50179"/>
<path d="M33.4509 10.8396H17.9795C13.7052 10.8396 10.228 14.3168 10.228 18.5911V32.7452C10.228 37.0194 13.7052 40.4966 17.9795 40.4966H33.4509C37.7251 40.4966 41.2023 37.0194 41.2023 32.7452V18.5911C41.2023 14.3168 37.7251 10.8396 33.4509 10.8396ZM12.9625 18.5911C12.9625 15.8251 15.2135 13.5741 17.9795 13.5741H33.4509C36.2169 13.5741 38.4679 15.8251 38.4679 18.5911V32.7452C38.4679 35.5112 36.2169 37.7621 33.4509 37.7621H17.9795C15.2135 37.7621 12.9625 35.5112 12.9625 32.7452V18.5911Z" fill="white"/>
<path d="M25.7151 32.8764C29.6898 32.8764 32.9252 29.6427 32.9252 25.6662C32.9252 21.6898 29.6915 18.4561 25.7151 18.4561C21.7386 18.4561 18.5049 21.6898 18.5049 25.6662C18.5049 29.6427 21.7386 32.8764 25.7151 32.8764ZM25.7151 21.1923C28.1833 21.1923 30.1908 23.1998 30.1908 25.668C30.1908 28.1362 28.1833 30.1437 25.7151 30.1437C23.2469 30.1437 21.2394 28.1362 21.2394 25.668C21.2394 23.1998 23.2469 21.1923 25.7151 21.1923Z" fill="white"/>
<path d="M33.5926 19.621C34.6629 19.621 35.5353 18.7504 35.5353 17.6783C35.5353 16.6062 34.6646 15.7356 33.5926 15.7356C32.5205 15.7356 31.6499 16.6062 31.6499 17.6783C31.6499 18.7504 32.5205 19.621 33.5926 19.621Z" fill="white"/>
</svg>
