<svg width="51" height="51" viewBox="0 0 51 51" fill="none" xmlns="http://www.w3.org/2000/svg">
<path d="M25.4378 0.66748H25.3239C11.5483 0.66748 0.380859 11.8349 0.380859 25.6105V25.7244C0.380859 39.5001 11.5483 50.6675 25.3239 50.6675H25.4378C39.2135 50.6675 50.3809 39.5001 50.3809 25.7244V25.6105C50.3809 11.8349 39.2135 0.66748 25.4378 0.66748Z" fill="#F50179"/>
<path d="M39.9807 16.617C39.2958 17.309 38.3463 17.7382 37.2935 17.7382C37.1586 17.7382 37.0273 17.7312 36.8959 17.7171C37.9942 17.0585 38.8421 16.0267 39.2642 14.797C39.2642 14.797 39.266 14.797 39.266 14.7952C39.3256 14.6306 39.3746 14.4642 39.4131 14.2925C38.5443 15.2209 37.3566 15.8498 36.0235 16.0004C35.8186 16.025 35.6101 16.0372 35.4016 16.0372C35.3351 16.0372 35.2703 16.0355 35.2072 16.032C34.757 15.559 34.2192 15.1666 33.6236 14.8793C32.9597 14.5552 32.217 14.3643 31.434 14.3398C31.3691 14.3363 31.3061 14.3345 31.2395 14.3345C30.5756 14.3345 29.938 14.4519 29.3494 14.6691C29.1987 14.7234 29.0516 14.7847 28.9079 14.8548C27.0423 15.7289 25.7513 17.6261 25.7513 19.8227C25.7513 20.2729 25.8056 20.7126 25.9089 21.1313C25.3379 21.1085 24.7721 21.0542 24.2168 20.9701C24.0381 20.9421 23.8611 20.9106 23.6842 20.8773C22.2688 20.6145 20.9182 20.1626 19.664 19.546C18.5411 18.9977 17.4953 18.3197 16.5424 17.5315C15.7418 16.871 15.0096 16.1353 14.3545 15.3295C14.3264 15.2962 14.2984 15.2595 14.2704 15.2262C14.2318 15.284 14.1968 15.3435 14.1653 15.4048C13.708 16.2054 13.4488 17.1303 13.4488 18.1183C13.4488 18.1481 13.4488 18.1813 13.4505 18.2111C13.4611 18.9504 13.6187 19.6546 13.899 20.2957C14.0181 20.5795 14.1635 20.8475 14.3299 21.1033C14.8204 21.8583 15.4896 22.4871 16.2814 22.9216C16.3182 22.9443 16.3532 22.9636 16.3917 22.9811C16.3357 22.9916 16.2761 23.0021 16.2183 23.0074C16.0554 23.0284 15.889 23.0389 15.7208 23.0389C14.8782 23.0389 14.0952 22.7762 13.4541 22.3277C13.4506 22.375 13.4505 22.4223 13.4505 22.4714C13.4505 24.0392 14.1075 25.4528 15.1603 26.4496C15.9801 27.2309 17.0399 27.7581 18.217 27.9105C17.7931 28.0664 17.3359 28.1488 16.8577 28.1488C16.3409 28.1488 15.8469 28.0507 15.395 27.8702C16.0694 30.0617 18.0787 31.668 20.475 31.7416C19.0123 33.2621 16.9558 34.2063 14.682 34.2063C13.2684 34.2063 11.9388 33.8402 10.7861 33.2008C13.5556 35.5972 17.166 37.0441 21.1162 37.0441C29.8451 37.0441 36.9204 29.9688 36.9204 21.2399C36.9204 20.7599 36.8994 20.2834 36.8556 19.814C38.299 19.2447 39.4447 18.078 39.986 16.617H39.9807Z" fill="white"/>
</svg>
