<svg xmlns="http://www.w3.org/2000/svg" width="21" height="21" viewBox="0 0 21 21" fill="none">
  <path d="M9.09505 11.125H4.51172C4.33464 11.125 4.1862 11.0647 4.06641 10.9442C3.94661 10.8237 3.88672 10.6744 3.88672 10.4963C3.88672 10.3182 3.94661 10.1701 4.06641 10.052C4.1862 9.93399 4.33464 9.87496 4.51172 9.87496H9.09505V5.29163C9.09505 5.11454 9.15529 4.96611 9.27578 4.84631C9.39628 4.72652 9.54559 4.66663 9.7237 4.66663C9.90182 4.66663 10.0499 4.72652 10.168 4.84631C10.286 4.96611 10.3451 5.11454 10.3451 5.29163V9.87496H14.9284C15.1055 9.87496 15.2539 9.9352 15.3737 10.0557C15.4935 10.1762 15.5534 10.3255 15.5534 10.5036C15.5534 10.6817 15.4935 10.8298 15.3737 10.9479C15.2539 11.0659 15.1055 11.125 14.9284 11.125H10.3451V15.7083C10.3451 15.8854 10.2848 16.0338 10.1643 16.1536C10.0438 16.2734 9.89452 16.3333 9.71641 16.3333C9.53828 16.3333 9.39019 16.2734 9.27214 16.1536C9.15408 16.0338 9.09505 15.8854 9.09505 15.7083V11.125Z" fill="black"/>
</svg>