<svg xmlns="http://www.w3.org/2000/svg" x="0px" y="0px" width="30" height="30" viewBox="0 0 48 48">
<path fill="#8FCCF7" d="M42.4,21.5c-1.7,0-3,1.3-3,3c0-1.7-1.3-3-3-3s-3,1.3-3,3c0-1.7-1.3-3-3-3s-3,1.3-3,3v-13c0-1.7-1.3-3-3-3	s-3,1.3-3,3v20.3c0,0.8-0.8,1.3-1.5,0.9c-1.5-0.9-2.8-2.1-4.1-2.7c-0.6-0.3-1.2-0.4-1.8-0.4c-3.2,0-3.5,2.9-3.5,2.9s7.2,7.3,9.7,10	c1.8,1.9,4.1,3.1,6.6,3.1h8.6c5.5,0,10-4.5,10-10v-11C45.4,22.8,44.1,21.5,42.4,21.5z"></path><path fill="none" stroke="#18193f" stroke-linecap="round" stroke-linejoin="round" stroke-miterlimit="5" stroke-width="3" d="M37.8,39.2c2.2-1.8,3.6-4.6,3.6-7.7v-11c0-1.7-1.3-3-3-3s-3,1.3-3,3c0-1.7-1.3-3-3-3s-3,1.3-3,3	c0-1.7-1.3-3-3-3s-3,1.3-3,3v-13c0-1.7-1.3-3-3-3s-3,1.3-3,3v5.3"></path><path fill="none" stroke="#18193f" stroke-linecap="round" stroke-linejoin="round" stroke-miterlimit="5" stroke-width="3" d="M17.4,18.2v9.5c0,0.8-0.8,1.3-1.5,0.9c-1.5-0.9-2.8-2.1-4.1-2.7c-0.6-0.3-1.2-0.4-1.8-0.4	c-3.2,0-3.5,2.9-3.5,2.9s7.2,7.3,9.7,10c1.8,1.9,4.1,3.1,6.6,3.1h8.6"></path>
</svg>