<svg width="51" height="51" viewBox="0 0 51 51" fill="none" xmlns="http://www.w3.org/2000/svg">
<path d="M50.8148 25.5007C50.8148 38.1272 41.4556 48.5658 29.2972 50.2597C28.1604 50.4174 26.9972 50.4997 25.8166 50.4997C24.4538 50.4997 23.1155 50.3911 21.8123 50.1809C9.90959 48.2645 0.818359 37.9433 0.818359 25.5007C0.818359 11.6936 12.0116 0.5 25.8184 0.5C39.6251 0.5 50.8184 11.6936 50.8184 25.5007H50.8148Z" fill="#2D99DA"/>
<path d="M29.2987 20.5746V26.0206H36.0357L34.9689 33.3566H29.2987V50.2586C28.1619 50.4162 26.9988 50.4986 25.8181 50.4986C24.4553 50.4986 23.1171 50.39 21.8138 50.1798V33.3566H15.6006V26.0206H21.8138V19.3572C21.8138 15.2232 25.1648 11.8705 29.3005 11.8705V11.874C29.3128 11.874 29.3233 11.8705 29.3355 11.8705H36.0375V18.2151H31.6583C30.3568 18.2151 29.3005 19.2713 29.3005 20.5728L29.2987 20.5746Z" fill="white"/>
</svg>
