<svg width="51" height="51" viewBox="0 0 51 51" fill="none" xmlns="http://www.w3.org/2000/svg">
<path d="M25.2386 0.5H25.1247C11.349 0.5 0.181641 11.6674 0.181641 25.4431V25.5569C0.181641 39.3326 11.349 50.5 25.1247 50.5H25.2386C39.0142 50.5 50.1816 39.3326 50.1816 25.5569V25.4431C50.1816 11.6674 39.0142 0.5 25.2386 0.5Z" fill="#2D99DA"/>
<path d="M32.9182 10.6718H17.4468C13.1725 10.6718 9.69531 14.149 9.69531 18.4232V32.5773C9.69531 36.8516 13.1725 40.3288 17.4468 40.3288H32.9182C37.1924 40.3288 40.6696 36.8516 40.6696 32.5773V18.4232C40.6696 14.149 37.1924 10.6718 32.9182 10.6718ZM12.4298 18.4232C12.4298 15.6572 14.6808 13.4062 17.4468 13.4062H32.9182C35.6842 13.4062 37.9352 15.6572 37.9352 18.4232V32.5773C37.9352 35.3433 35.6842 37.5943 32.9182 37.5943H17.4468C14.6808 37.5943 12.4298 35.3433 12.4298 32.5773V18.4232Z" fill="white"/>
<path d="M25.1833 32.7083C29.158 32.7083 32.3935 29.4746 32.3935 25.4981C32.3935 21.5217 29.1598 18.288 25.1833 18.288C21.2069 18.288 17.9731 21.5217 17.9731 25.4981C17.9731 29.4746 21.2069 32.7083 25.1833 32.7083ZM25.1833 21.0242C27.6515 21.0242 29.659 23.0317 29.659 25.4999C29.659 27.9681 27.6515 29.9756 25.1833 29.9756C22.7151 29.9756 20.7076 27.9681 20.7076 25.4999C20.7076 23.0317 22.7151 21.0242 25.1833 21.0242Z" fill="white"/>
<path d="M33.0604 19.4536C34.1307 19.4536 35.003 18.583 35.003 17.5109C35.003 16.4389 34.1324 15.5682 33.0604 15.5682C31.9883 15.5682 31.1177 16.4389 31.1177 17.5109C31.1177 18.583 31.9883 19.4536 33.0604 19.4536Z" fill="white"/>
</svg>
