<svg width="51" height="51" viewBox="0 0 51 51" fill="none" xmlns="http://www.w3.org/2000/svg">
<path d="M25.6937 0.5H25.5798C11.8041 0.5 0.636719 11.6674 0.636719 25.443V25.5569C0.636719 39.3326 11.8041 50.5 25.5798 50.5H25.6937C39.4693 50.5 50.6367 39.3326 50.6367 25.5569V25.443C50.6367 11.6674 39.4693 0.5 25.6937 0.5Z" fill="#2D99DA"/>
<path d="M37.7238 18.5888V23.3097C36.8987 23.2291 35.8266 23.0417 34.6407 22.6073C33.0922 22.0397 31.9395 21.2637 31.1845 20.6628V30.2046L31.1653 30.1748C31.1775 30.364 31.1845 30.5567 31.1845 30.7511C31.1845 35.4896 27.3289 39.3469 22.5887 39.3469C17.8485 39.3469 13.9929 35.4896 13.9929 30.7511C13.9929 26.0127 17.8485 22.1536 22.5887 22.1536C23.0529 22.1536 23.5084 22.1904 23.9533 22.2622V26.9148C23.5259 26.7624 23.0669 26.6801 22.5887 26.6801C20.3447 26.6801 18.5177 28.5054 18.5177 30.7511C18.5177 32.9969 20.3447 34.8222 22.5887 34.8222C24.8327 34.8222 26.6598 32.9951 26.6598 30.7511C26.6598 30.667 26.658 30.583 26.6528 30.4989V11.9567H31.3702C31.3877 12.3561 31.4035 12.759 31.421 13.1584C31.4525 13.9449 31.7328 14.6999 32.2216 15.3183C32.7944 16.0452 33.6405 16.8896 34.8281 17.564C35.9405 18.1929 36.9845 18.4644 37.7238 18.5923V18.5888Z" fill="white"/>
</svg>
