<svg width="50" height="51" viewBox="0 0 50 51" fill="none" xmlns="http://www.w3.org/2000/svg">
<path d="M25.0569 0.5H24.9431C11.1674 0.5 0 11.6674 0 25.4431V25.5569C0 39.3326 11.1674 50.5 24.9431 50.5H25.0569C38.8326 50.5 50 39.3326 50 25.5569V25.4431C50 11.6674 38.8326 0.5 25.0569 0.5Z" fill="#2D99DA"/>
<path d="M39.5998 16.4492C38.9149 17.1411 37.9655 17.5703 36.9127 17.5703C36.7778 17.5703 36.6464 17.5633 36.515 17.5493C37.6134 16.8906 38.4612 15.8589 38.8834 14.6291C38.8834 14.6291 38.8851 14.6291 38.8851 14.6274C38.9447 14.4627 38.9937 14.2963 39.0323 14.1246C38.1634 15.0531 36.9757 15.6819 35.6427 15.8326C35.4377 15.8571 35.2292 15.8694 35.0208 15.8694C34.9542 15.8694 34.8894 15.8676 34.8263 15.8641C34.3761 15.3912 33.8384 14.9987 33.2428 14.7115C32.5789 14.3874 31.8361 14.1965 31.0531 14.1719C30.9883 14.1684 30.9252 14.1667 30.8586 14.1667C30.1947 14.1667 29.5571 14.284 28.9685 14.5013C28.8179 14.5556 28.6707 14.6169 28.5271 14.687C26.6615 15.5611 25.3704 17.4582 25.3704 19.6549C25.3704 20.1051 25.4247 20.5448 25.5281 20.9634C24.957 20.9407 24.3912 20.8864 23.8359 20.8023C23.6572 20.7743 23.4803 20.7427 23.3034 20.7095C21.888 20.4467 20.5374 19.9947 19.2831 19.3781C18.1603 18.8298 17.1145 18.1519 16.1615 17.3636C15.361 16.7032 14.6287 15.9675 13.9736 15.1617C13.9456 15.1284 13.9175 15.0916 13.8895 15.0583C13.851 15.1161 13.8159 15.1757 13.7844 15.237C13.3272 16.0375 13.0679 16.9625 13.0679 17.9505C13.0679 17.9802 13.0679 18.0135 13.0697 18.0433C13.0802 18.7825 13.2378 19.4867 13.5181 20.1279C13.6372 20.4116 13.7827 20.6797 13.9491 20.9354C14.4396 21.6904 15.1087 22.3193 15.9005 22.7537C15.9373 22.7765 15.9723 22.7958 16.0109 22.8133C15.9548 22.8238 15.8952 22.8343 15.8374 22.8396C15.6745 22.8606 15.5081 22.8711 15.3399 22.8711C14.4974 22.8711 13.7143 22.6083 13.0732 22.1599C13.0697 22.2072 13.0697 22.2545 13.0697 22.3035C13.0697 23.8713 13.7266 25.285 14.7794 26.2817C15.5992 27.063 16.659 27.5903 17.8362 27.7427C17.4123 27.8986 16.955 27.9809 16.4768 27.9809C15.9601 27.9809 15.4661 27.8828 15.0141 27.7024C15.6885 29.8938 17.6978 31.5002 20.0942 31.5737C18.6315 33.0943 16.5749 34.0385 14.3012 34.0385C12.8875 34.0385 11.5579 33.6723 10.4053 33.033C13.1748 35.4293 16.7851 36.8763 20.7353 36.8763C29.4643 36.8763 36.5395 29.801 36.5395 21.0721C36.5395 20.5921 36.5185 20.1156 36.4747 19.6461C37.9182 19.0768 39.0638 17.9102 39.6051 16.4492H39.5998Z" fill="white"/>
</svg>
