<svg width="530" height="700" viewBox="0 0 530 700" fill="none" xmlns="http://www.w3.org/2000/svg">
<path d="M350.725 639.223C273.474 639.223 200.841 609.136 146.217 554.512C91.5871 499.882 61.5068 427.256 61.5068 349.999C61.5068 272.748 91.5871 200.115 146.217 145.492C200.841 90.8613 273.474 60.781 350.725 60.781C427.981 60.781 500.614 90.8613 555.238 145.492C609.862 200.115 639.949 272.748 639.949 349.999C639.949 427.256 609.862 499.889 555.238 554.512C500.614 609.136 427.981 639.223 350.725 639.223ZM350.725 63.5203C192.759 63.5203 64.2461 192.033 64.2461 349.999C64.2461 507.97 192.766 636.484 350.725 636.484C508.69 636.484 637.209 507.97 637.209 349.999C637.209 192.033 508.69 63.5203 350.725 63.5203Z" fill="#8FCCF7"/>
<path d="M350.725 574.251C227.075 574.251 126.479 473.655 126.479 349.999C126.479 226.349 227.075 125.747 350.725 125.747C474.381 125.747 574.977 226.349 574.977 349.999C574.977 473.655 474.381 574.251 350.725 574.251ZM350.725 127.877C228.247 127.877 128.603 227.521 128.603 349.999C128.603 472.483 228.247 572.127 350.725 572.127C473.209 572.127 572.853 472.483 572.853 349.999C572.853 227.521 473.209 127.877 350.725 127.877Z" fill="#8FCCF7"/>
<path d="M350.725 700C257.239 700 169.349 663.599 103.244 597.487C37.1318 531.382 0.724609 443.492 0.724609 350C0.724609 256.515 37.1318 168.618 103.244 102.513C169.349 36.4072 257.239 0 350.725 0C444.216 0 532.107 36.4072 598.212 102.513C664.317 168.618 700.725 256.515 700.725 350C700.725 443.492 664.317 531.382 598.212 597.487C532.107 663.599 444.216 700 350.725 700ZM350.725 3.31563C159.564 3.31563 4.04672 158.84 4.04672 350C4.04672 541.167 159.564 696.684 350.725 696.684C541.892 696.684 697.409 541.167 697.409 350C697.409 158.84 541.892 3.31563 350.725 3.31563Z" fill="#8FCCF7"/>
</svg>
