<svg width="332" height="551" viewBox="0 0 332 551" fill="none" xmlns="http://www.w3.org/2000/svg">
<path d="M56.0254 550.251C-17.4292 550.251 -86.4894 521.645 -138.429 469.706C-190.368 417.761 -218.975 348.708 -218.975 275.248C-218.975 201.794 -190.368 132.741 -138.429 80.7957C-86.4894 28.8569 -17.4292 0.250977 56.0254 0.250977C129.48 0.250977 198.54 28.8569 250.48 80.7957C302.419 132.741 331.025 201.794 331.025 275.248C331.025 348.708 302.419 417.761 250.48 469.706C198.54 521.645 129.48 550.251 56.0254 550.251ZM56.0254 2.86066C-94.171 2.86066 -216.372 125.053 -216.372 275.248C-216.372 425.449 -94.171 547.648 56.0254 547.648C206.228 547.648 328.422 425.449 328.422 275.248C328.422 125.053 206.228 2.86066 56.0254 2.86066Z" fill="#FF86C1"/>
<path d="M56.0256 502.498C-4.67549 502.498 -61.7405 478.856 -104.663 435.934C-147.579 393.018 -171.221 335.947 -171.221 275.247C-171.221 214.553 -147.579 157.482 -104.663 114.567C-61.7405 71.6444 -4.67549 48.0029 56.0256 48.0029C116.727 48.0029 173.792 71.6444 216.715 114.567C259.637 157.482 283.272 214.553 283.272 275.247C283.272 335.947 259.637 393.018 216.715 435.934C173.792 478.856 116.727 502.498 56.0256 502.498ZM56.0256 50.1631C-68.087 50.1631 -169.068 151.136 -169.068 275.247C-169.068 399.365 -68.087 500.344 56.0256 500.344C180.145 500.344 281.119 399.365 281.119 275.247C281.119 151.136 180.145 50.1631 56.0256 50.1631Z" fill="#FF86C1"/>
<path d="M56.0253 451.445C-41.1314 451.445 -120.174 372.403 -120.174 275.248C-120.174 178.092 -41.1314 99.0571 56.0253 99.0571C153.182 99.0571 232.225 178.092 232.225 275.248C232.225 372.403 153.182 451.445 56.0253 451.445ZM56.0253 100.728C-40.2055 100.728 -118.504 179.018 -118.504 275.248C-118.504 371.484 -40.2055 449.782 56.0253 449.782C152.263 449.782 230.555 371.484 230.555 275.248C230.555 179.018 152.263 100.728 56.0253 100.728Z" fill="#FF86C1"/>
</svg>
