<svg width="361" height="501" viewBox="0 0 361 501" fill="none" xmlns="http://www.w3.org/2000/svg">
<path d="M250.663 500.349C183.884 500.349 121.106 474.341 73.8851 427.121C26.672 379.908 0.663086 317.123 0.663086 250.345C0.663086 183.575 26.672 120.79 73.8851 73.5775C121.106 26.3577 183.884 0.349121 250.663 0.349121C317.442 0.349121 380.221 26.3577 427.441 73.5775C474.662 120.79 500.663 183.575 500.663 250.345C500.663 317.123 474.662 379.908 427.441 427.121C380.221 474.341 317.442 500.349 250.663 500.349ZM250.663 2.72561C114.124 2.72561 3.03223 113.808 3.03223 250.345C3.03223 386.89 114.124 497.98 250.663 497.98C387.21 497.98 498.294 386.89 498.294 250.345C498.294 113.808 387.21 2.72561 250.663 2.72561Z" fill="#FED230"/>
<path d="M250.663 444.185C143.778 444.185 56.8213 357.229 56.8213 250.346C56.8213 143.463 143.778 56.5146 250.663 56.5146C357.548 56.5146 444.505 143.463 444.505 250.346C444.505 357.229 357.548 444.185 250.663 444.185ZM250.663 58.3524C144.797 58.3524 58.659 144.482 58.659 250.346C58.659 356.218 144.797 442.355 250.663 442.355C356.536 442.355 442.667 356.218 442.667 250.346C442.667 144.482 356.536 58.3524 250.663 58.3524Z" fill="#FED230"/>
</svg>
