<svg width="459" height="701" viewBox="0 0 459 701" fill="none" xmlns="http://www.w3.org/2000/svg">
<path d="M108.5 700.5C15.0124 700.5 -72.8825 664.092 -138.987 597.987C-205.092 531.874 -241.5 443.988 -241.5 350.491C-241.5 257.004 -205.092 169.117 -138.987 103.004C-72.8825 36.8994 15.0124 0.491455 108.5 0.491455C201.988 0.491455 289.883 36.8994 355.987 103.004C422.092 169.117 458.5 257.004 458.5 350.491C458.5 443.988 422.092 531.874 355.987 597.987C289.883 664.092 201.988 700.5 108.5 700.5ZM108.5 3.81292C-82.659 3.81292 -238.187 159.332 -238.187 350.491C-238.187 541.659 -82.659 697.187 108.5 697.187C299.668 697.187 455.187 541.659 455.187 350.491C455.187 159.332 299.668 3.81292 108.5 3.81292Z" fill="#B898E3"/>
<path d="M108.5 639.722C31.2441 639.722 -41.384 609.633 -96.0131 555.004C-150.634 500.383 -180.723 427.747 -180.723 350.491C-180.723 273.243 -150.634 200.606 -96.0131 145.986C-41.384 91.3568 31.2441 61.2673 108.5 61.2673C185.756 61.2673 258.384 91.3568 313.013 145.986C367.642 200.606 397.723 273.243 397.723 350.491C397.723 427.747 367.642 500.383 313.013 555.004C258.384 609.633 185.756 639.722 108.5 639.722ZM108.5 64.0167C-49.4614 64.0167 -177.982 192.529 -177.982 350.491C-177.982 508.461 -49.4614 636.981 108.5 636.981C266.47 636.981 394.983 508.461 394.983 350.491C394.983 192.529 266.47 64.0167 108.5 64.0167Z" fill="#B898E3"/>
</svg>
