<svg width="428" height="601" viewBox="0 0 428 601" fill="none" xmlns="http://www.w3.org/2000/svg">
<path d="M300.852 600.507C220.719 600.507 145.381 569.3 88.7196 512.639C32.0584 455.971 0.851562 380.64 0.851562 300.5C0.851562 220.368 32.0584 145.037 88.7196 88.3681C145.381 31.7068 220.719 0.5 300.852 0.5C380.984 0.5 456.322 31.7068 512.984 88.3681C569.645 145.037 600.852 220.368 600.852 300.5C600.852 380.64 569.645 455.971 512.984 512.639C456.322 569.3 380.984 600.507 300.852 600.507ZM300.852 3.34697C137.001 3.34697 3.69121 136.649 3.69121 300.5C3.69121 464.358 137.001 597.668 300.852 597.668C464.709 597.668 598.012 464.358 598.012 300.5C598.012 136.649 464.709 3.34697 300.852 3.34697Z" fill="#F6E870"/>
<path d="M300.852 492.719C194.862 492.719 108.634 406.49 108.634 300.501C108.634 194.512 194.862 108.29 300.852 108.29C406.841 108.29 493.069 194.512 493.069 300.501C493.069 406.49 406.841 492.719 300.852 492.719ZM300.852 110.113C195.872 110.113 110.456 195.522 110.456 300.501C110.456 405.487 195.872 490.903 300.852 490.903C405.838 490.903 491.247 405.487 491.247 300.501C491.247 195.522 405.838 110.113 300.852 110.113Z" fill="#F6E870"/>
</svg>
