<svg width="279" height="521" viewBox="0 0 279 521" fill="none" xmlns="http://www.w3.org/2000/svg">
<path d="M18.5 520.497C-50.9479 520.497 -116.241 493.452 -165.348 444.345C-214.454 395.232 -241.5 329.945 -241.5 260.491C-241.5 191.043 -214.454 125.756 -165.348 76.6435C-116.241 27.5371 -50.9479 0.491211 18.5 0.491211C87.9479 0.491211 153.241 27.5371 202.348 76.6435C251.454 125.756 278.5 191.043 278.5 260.491C278.5 329.945 251.454 395.232 202.348 444.345C153.241 493.452 87.9479 520.497 18.5 520.497ZM18.5 2.95858C-123.504 2.95858 -239.039 118.487 -239.039 260.491C-239.039 402.501 -123.504 518.036 18.5 518.036C160.51 518.036 276.039 402.501 276.039 260.491C276.039 118.487 160.51 2.95858 18.5 2.95858Z" fill="#45AAF2"/>
<path d="M18.5 475.348C-38.8902 475.348 -92.8425 452.996 -133.424 412.414C-173.999 371.839 -196.352 317.881 -196.352 260.49C-196.352 203.107 -173.999 149.148 -133.424 108.573C-92.8425 67.9911 -38.8902 45.6389 18.5 45.6389C75.8902 45.6389 129.842 67.9911 170.424 108.573C211.006 149.148 233.352 203.107 233.352 260.49C233.352 317.881 211.006 371.839 170.424 412.414C129.842 452.996 75.8902 475.348 18.5 475.348ZM18.5 47.6813C-98.8428 47.6813 -194.316 143.148 -194.316 260.49C-194.316 377.84 -98.8428 473.312 18.5 473.312C135.849 473.312 231.316 377.84 231.316 260.49C231.316 143.148 135.849 47.6813 18.5 47.6813Z" fill="#45AAF2"/>
</svg>
