<svg width="262" height="420" viewBox="0 0 262 420" fill="none" xmlns="http://www.w3.org/2000/svg">
<path d="M210.986 420.006C154.892 420.006 102.158 398.159 62.4928 358.493C22.8338 318.834 0.986328 266.094 0.986328 210C0.986328 153.912 22.8338 101.172 62.4928 61.5127C102.158 21.8475 154.892 0 210.986 0C267.081 0 319.815 21.8475 359.48 61.5127C399.145 101.172 420.986 153.912 420.986 210C420.986 266.094 399.145 318.834 359.48 358.493C319.815 398.159 267.081 420.006 210.986 420.006ZM210.986 1.99628C96.2932 1.99628 2.97641 95.3069 2.97641 210C2.97641 324.699 96.2932 418.016 210.986 418.016C325.686 418.016 418.996 324.699 418.996 210C418.996 95.3069 325.686 1.99628 210.986 1.99628Z" fill="#F4B86A"/>
<path d="M210.986 372.828C121.203 372.828 48.1592 299.784 48.1592 210.001C48.1592 120.218 121.203 47.1804 210.986 47.1804C300.769 47.1804 373.813 120.218 373.813 210.001C373.813 299.784 300.769 372.828 210.986 372.828ZM210.986 48.7241C122.059 48.7241 49.7029 121.074 49.7029 210.001C49.7029 298.935 122.059 371.291 210.986 371.291C299.92 371.291 372.27 298.935 372.27 210.001C372.27 121.074 299.92 48.7241 210.986 48.7241Z" fill="#F4B86A"/>
</svg>
