<svg width="200" height="51" viewBox="0 0 200 51" fill="none" xmlns="http://www.w3.org/2000/svg">
<path d="M44.0251 41.553V15.7845H51.1999C55.5784 15.7845 58.9634 18.2877 58.9634 22.6315C58.9634 24.9507 57.8964 26.6073 56.2407 27.6748C58.7059 28.7792 60.4352 30.9511 60.4352 34.1538C60.4352 39.013 56.5718 41.553 51.9358 41.553H44.0251ZM47.9621 37.6141H51.9358C54.401 37.6141 56.4614 36.2153 56.4614 33.8225C56.4614 31.3192 54.6585 30.0308 51.9358 30.0308H47.9621V37.6141ZM47.9621 26.2023H51.1999C53.4076 26.2023 55.0633 25.098 55.0633 22.9629C55.0633 20.8277 53.4076 19.7234 51.1999 19.7234H47.9621V26.2023Z" fill="black"/>
<path d="M63.9225 41.553V22.8892H67.5283V25.9078C68.8897 23.6623 71.0237 22.4843 73.8568 22.4843V26.0919C69.8463 26.0919 67.5283 28.0429 67.5283 33.9329V41.553H63.9225Z" fill="black"/>
<path d="M100.072 41.553V32.2211V22.8892H103.641V41.553H100.072ZM99.7778 17.441C99.7778 16.2998 100.734 15.3795 101.838 15.3795C102.979 15.3795 103.935 16.2998 103.935 17.441C103.935 18.5822 102.979 19.5025 101.838 19.5025C100.734 19.5025 99.7778 18.5822 99.7778 17.441Z" fill="black"/>
<path d="M107.795 41.553V22.8892H111.401V25.4293C112.762 23.6255 114.749 22.4475 117.398 22.4475C122.439 22.4475 125.64 26.4968 125.64 31.5401V41.553H122.034V31.5401C122.034 28.227 119.863 26.0551 117.067 26.0551C113.498 26.0551 111.401 29.0369 111.401 32.6077V41.553H107.795Z" fill="black"/>
<path d="M134.45 41.553L127.275 22.8892H131.139L136.4 36.5466L140.668 22.8892H144.164L148.395 36.5466L153.657 22.8892H157.52L150.345 41.553H146.482L142.398 28.5215L138.313 41.553H134.45Z" fill="black"/>
<path d="M168.044 41.958C162.635 41.958 158.441 37.6141 158.441 32.2027C158.441 26.7913 162.635 22.4475 168.044 22.4475C170.877 22.4475 173.195 23.6623 174.851 25.3925V22.8892H178.457V41.553H174.851V39.013C173.195 40.78 170.877 41.958 168.044 41.958ZM162.083 32.2027C162.083 35.6263 164.953 38.3504 168.375 38.3504C171.797 38.3504 174.704 35.6263 174.704 32.2027C174.704 28.7792 171.797 26.0551 168.375 26.0551C164.953 26.0551 162.083 28.7792 162.083 32.2027Z" fill="black"/>
<path d="M184.363 50.3144L188.116 41.553L180.095 22.8892H184.031L190.066 36.9515L196.1 22.8892H200L188.3 50.3144H184.363Z" fill="black"/>
<path d="M104.106 17.395C104.106 18.6657 103.077 19.6958 101.807 19.6958C100.537 19.6958 99.5071 18.6657 99.5071 17.395C99.5071 16.1243 100.537 15.0942 101.807 15.0942C103.077 15.0942 104.106 16.1243 104.106 17.395Z" fill="#2196F3"/>
<path d="M84.9644 42.0316C79.5557 42.0316 75.3612 37.6878 75.3612 32.2764C75.3612 26.865 79.5557 22.5211 84.9644 22.5211C87.7975 22.5211 90.1155 23.7359 91.7712 25.4661V22.9629H95.377V41.6267H91.7712V39.0866C90.1155 40.8536 87.7975 42.0316 84.9644 42.0316ZM79.0038 32.2764C79.0038 35.6999 81.8737 38.424 85.2955 38.424C88.7173 38.424 91.624 35.6999 91.624 32.2764C91.624 28.8528 88.7173 26.1287 85.2955 26.1287C81.8737 26.1287 79.0038 28.8528 79.0038 32.2764Z" fill="black"/>
<mask id="mask0_346_20" style="mask-type:luminance" maskUnits="userSpaceOnUse" x="7" y="12" width="25" height="33">
<path d="M7.39032 12.938H31.4466V44.3091H7.39032V12.938Z" fill="white"/>
</mask>
<g mask="url(#mask0_346_20)">
<path d="M15.9413 36.5714C11.6075 36.5714 8.08083 33.04 8.08083 28.6992C8.08083 24.3606 11.6075 20.8293 15.9413 20.8293C20.2786 20.8293 23.8053 24.3606 23.8053 28.6992C23.8053 33.04 20.2786 36.5714 15.9413 36.5714ZM15.9413 13.1538C12.9095 13.1538 10.0804 14.0316 7.6861 15.5422V41.8584C10.0804 43.369 12.9095 44.2469 15.9413 44.2469C24.5064 44.2469 31.4713 37.2725 31.4713 28.6992C31.4713 20.1282 24.5064 13.1538 15.9413 13.1538Z" fill="#FED230"/>
</g>
<mask id="mask1_346_20" style="mask-type:luminance" maskUnits="userSpaceOnUse" x="0" y="0" width="8" height="45">
<path d="M0 0H7.69196V44.0073H0V0Z" fill="white"/>
</mask>
<g mask="url(#mask1_346_20)">
<path d="M0.412413 28.6985C0.412413 23.1628 3.32046 18.2953 7.68608 15.5416V0.0952148H0.0188599V43.8397H7.68608V41.8578C3.32046 39.1041 0.412413 34.2365 0.412413 28.6985Z" fill="#2D99DA"/>
</g>
<path d="M0.412415 28.6989C0.412415 34.2369 3.32047 39.1045 7.68608 41.8582V15.542C3.32047 18.2957 0.412415 23.1633 0.412415 28.6989Z" fill="#FF3598"/>
</svg>
