<svg xmlns="http://www.w3.org/2000/svg" width="41" height="40" viewBox="0 0 41 40" fill="none">
  <path d="M20.8867 36.6666C19.9701 36.6666 19.1853 36.3402 18.5326 35.6874C17.8798 35.0346 17.5534 34.2499 17.5534 33.3333H24.2201C24.2201 34.2499 23.8937 35.0346 23.2409 35.6874C22.5881 36.3402 21.8034 36.6666 20.8867 36.6666ZM15.8867 31.6666C15.4145 31.6666 15.0187 31.5069 14.6992 31.1874C14.3798 30.868 14.2201 30.4721 14.2201 29.9999C14.2201 29.5277 14.3798 29.1319 14.6992 28.8124C15.0187 28.493 15.4145 28.3333 15.8867 28.3333H25.8867C26.3589 28.3333 26.7548 28.493 27.0742 28.8124C27.3937 29.1319 27.5534 29.5277 27.5534 29.9999C27.5534 30.4721 27.3937 30.868 27.0742 31.1874C26.7548 31.5069 26.3589 31.6666 25.8867 31.6666H15.8867ZM14.6367 26.6666C12.7201 25.5277 11.1992 23.9999 10.0742 22.0833C8.94922 20.1666 8.38672 18.0833 8.38672 15.8333C8.38672 12.361 9.602 9.40964 12.0326 6.97908C14.4631 4.54853 17.4145 3.33325 20.8867 3.33325C24.3589 3.33325 27.3103 4.54853 29.7409 6.97908C32.1714 9.40964 33.3867 12.361 33.3867 15.8333C33.3867 18.0833 32.8242 20.1666 31.6992 22.0833C30.5742 23.9999 29.0534 25.5277 27.1367 26.6666H14.6367ZM15.6367 23.3333H26.1367C27.3867 22.4444 28.352 21.3471 29.0326 20.0416C29.7131 18.736 30.0534 17.3333 30.0534 15.8333C30.0534 13.2777 29.1645 11.111 27.3867 9.33325C25.6089 7.55547 23.4423 6.66658 20.8867 6.66658C18.3312 6.66658 16.1645 7.55547 14.3867 9.33325C12.6089 11.111 11.7201 13.2777 11.7201 15.8333C11.7201 17.3333 12.0603 18.736 12.7409 20.0416C13.4214 21.3471 14.3867 22.4444 15.6367 23.3333Z" fill="black"/>
</svg>