<svg xmlns="http://www.w3.org/2000/svg" width="26" height="34" viewBox="0 0 26 34" fill="none">
  <path d="M12.8867 33.6666C11.9701 33.6666 11.1853 33.3402 10.5326 32.6874C9.87978 32.0346 9.55339 31.2499 9.55339 30.3333H16.2201C16.2201 31.2499 15.8937 32.0346 15.2409 32.6874C14.5881 33.3402 13.8034 33.6666 12.8867 33.6666ZM7.88672 28.6666C7.4145 28.6666 7.01866 28.5069 6.69922 28.1874C6.37977 27.868 6.22005 27.4721 6.22005 26.9999C6.22005 26.5277 6.37977 26.1319 6.69922 25.8124C7.01866 25.493 7.4145 25.3333 7.88672 25.3333H17.8867C18.3589 25.3333 18.7548 25.493 19.0742 25.8124C19.3937 26.1319 19.5534 26.5277 19.5534 26.9999C19.5534 27.4721 19.3937 27.868 19.0742 28.1874C18.7548 28.5069 18.3589 28.6666 17.8867 28.6666H7.88672ZM6.63672 23.6666C4.72005 22.5277 3.19922 20.9999 2.07422 19.0833C0.949219 17.1666 0.386719 15.0833 0.386719 12.8333C0.386719 9.36103 1.602 6.40964 4.03255 3.97908C6.46311 1.54853 9.4145 0.333252 12.8867 0.333252C16.3589 0.333252 19.3103 1.54853 21.7409 3.97908C24.1714 6.40964 25.3867 9.36103 25.3867 12.8333C25.3867 15.0833 24.8242 17.1666 23.6992 19.0833C22.5742 20.9999 21.0534 22.5277 19.1367 23.6666H6.63672ZM7.63672 20.3333H18.1367C19.3867 19.4444 20.352 18.3471 21.0326 17.0416C21.7131 15.736 22.0534 14.3333 22.0534 12.8333C22.0534 10.2777 21.1645 8.11103 19.3867 6.33325C17.6089 4.55547 15.4423 3.66658 12.8867 3.66658C10.3312 3.66658 8.1645 4.55547 6.38672 6.33325C4.60894 8.11103 3.72005 10.2777 3.72005 12.8333C3.72005 14.3333 4.06033 15.736 4.74089 17.0416C5.42144 18.3471 6.38672 19.4444 7.63672 20.3333Z" fill="#F5C400"/>
</svg>