<svg xmlns="http://www.w3.org/2000/svg" width="25" height="24" viewBox="0 0 25 24" fill="none">
  <path d="M12.407 10.7749L8.50703 14.6749C8.3237 14.8582 8.09036 14.9499 7.80703 14.9499C7.5237 14.9499 7.29036 14.8582 7.10703 14.6749C6.9237 14.4916 6.83203 14.2582 6.83203 13.9749C6.83203 13.6916 6.9237 13.4582 7.10703 13.2749L11.707 8.6749C11.807 8.5749 11.9154 8.50407 12.032 8.4624C12.1487 8.42074 12.2737 8.3999 12.407 8.3999C12.5404 8.3999 12.6654 8.42074 12.782 8.4624C12.8987 8.50407 13.007 8.5749 13.107 8.6749L17.707 13.2749C17.8904 13.4582 17.982 13.6916 17.982 13.9749C17.982 14.2582 17.8904 14.4916 17.707 14.6749C17.5237 14.8582 17.2904 14.9499 17.007 14.9499C16.7237 14.9499 16.4904 14.8582 16.307 14.6749L12.407 10.7749Z" fill="black" fill-opacity="0.7"/>
</svg>